<svg width="160" height="150" viewBox="0 0 160 150" fill="none" xmlns="http://www.w3.org/2000/svg">
<g clip-path="url(#clip0_137_2)">
<path d="M90.8607 28.125C65.8691 28.125 44.0441 44.1709 31.8969 57.8994L7.63852 38.5488C4.26907 35.8594 -0.76148 38.7246 0.0996306 42.8438L6.8163 75L0.0968528 107.159C-0.764258 111.278 4.2663 114.141 7.63574 111.454L31.8941 92.1035C44.0413 105.829 65.8691 121.875 90.8607 121.875C129.044 121.875 160 84.375 160 75C160 65.625 129.044 28.125 90.8607 28.125ZM115.147 82.0312C111.466 82.0312 108.48 78.8818 108.48 75C108.48 71.1152 111.466 67.9688 115.147 67.9688C118.83 67.9688 121.814 71.1152 121.814 75C121.814 78.8818 118.827 82.0312 115.147 82.0312Z" fill="#AE5F3D"/>
</g>
<defs>
<clipPath id="clip0_137_2">
<rect width="160" height="150" fill="white"/>
</clipPath>
</defs>
</svg>
